<?xml version="1.0" encoding="UTF-8"?>
<svg width="251px" height="142px" viewBox="0 0 251 142" version="1.1" xmlns="http://www.w3.org/2000/svg" xmlns:xlink="http://www.w3.org/1999/xlink">
    <!-- Generator: Sketch 41.2 (35397) - http://www.bohemiancoding.com/sketch -->
    <title>不传图默认</title>
    <desc>Created with Sketch.</desc>
    <defs></defs>
    <g id="Page-1" stroke="none" stroke-width="1" fill="none" fill-rule="evenodd">
        <g id="13首页" transform="translate(-760.000000, -671.000000)">
            <g id="资料下载" transform="translate(223.000000, 632.000000)">
                <g id="资料01" transform="translate(537.000000, 39.000000)">
                    <g id="不传图默认">
                        <rect id="Rectangle-2" fill="#4990E2" x="0" y="0" width="250.225007" height="142" rx="4"></rect>
                        <g id="Page-1" transform="translate(99.000000, 28.000000)" fill="#FFFFFF">
                            <path d="M34.08483,51.1785163 C32.1838967,51.1785163 30.6433633,49.6302714 30.6433633,47.7198224 C30.6433633,45.8093735 32.1838967,44.2611286 34.08483,44.2611286 C35.9857633,44.2611286 37.5262967,45.8093735 37.5262967,47.7198224 C37.5262967,49.6302714 35.9857633,51.1785163 34.08483,51.1785163 L34.08483,51.1785163 Z M17.8844967,51.1785163 C15.9835633,51.1785163 14.4412633,49.6302714 14.4412633,47.7198224 C14.4412633,45.8093735 15.9835633,44.2611286 17.8844967,44.2611286 C19.7836633,44.2611286 21.3259633,45.8093735 21.3259633,47.7198224 C21.3259633,49.6302714 19.7836633,51.1785163 17.8844967,51.1785163 L17.8844967,51.1785163 Z M46.0486967,40.1277408 C45.84023,39.0411286 44.8950633,38.329149 43.7961967,38.329149 L8.17313,38.329149 C7.07249667,38.329149 6.12733,39.0411286 5.91886333,40.1277408 L2.74593,56.6328837 L18.03643,56.6328837 C18.5999967,56.6328837 19.0893633,57.0590061 19.1688633,57.6200673 C19.6387967,60.9811082 22.5113967,63.5733531 25.9846633,63.5733531 C29.45793,63.5733531 32.3287633,60.9775571 32.8004633,57.6165163 C32.8781967,57.0554551 33.3675633,56.6328837 33.9328967,56.6328837 L49.2233967,56.6328837 L46.0486967,40.1277408 Z" id="Fill-1"></path>
                            <path d="M36.1855733,60.8568224 C34.5249067,65.0807612 30.5145733,67.7742102 25.98484,67.7742102 C21.45334,67.7742102 17.4430067,65.0807612 15.78234,60.8568224 L0.691473333,60.8568224 C0.20034,60.8568224 -0.137093333,61.3397612 0.0554733333,61.7942918 C4.09584,71.3181286 15.2982733,81.0781082 25.1138733,85.0943122 C25.67214,85.3215776 26.2957733,85.316251 26.85404,85.0872102 C36.66964,81.0727816 47.87384,71.3199041 51.9142067,61.7960673 C52.1067733,61.3415367 51.76934,60.8568224 51.27644,60.8568224 L36.1855733,60.8568224 Z" id="Fill-3"></path>
                            <path d="M15.8727933,12.150849 L20.3194933,16.5470122 C12.5161267,18.3722367 6.56246,23.8976245 5.33462667,30.5859714 L21.14806,30.5859714 C21.14806,33.4019306 23.2327267,35.2626653 25.8032267,35.2626653 C28.3737267,35.2626653 30.4583933,33.4019306 30.4583933,30.5859714 L46.6339933,30.5859714 C45.40616,23.8976245 39.4524933,18.3722367 31.6491267,16.5470122 L36.0958267,12.1135633 L34.5588267,10.5546653 L28.9213933,16.1546245 C28.4761933,16.1013592 28.2058933,16.062298 27.5045267,16.0321143 L27.5045267,8.17725714 C28.9054933,7.49723673 29.9478267,5.97029796 29.7640933,4.23917551 C29.57506,2.44946122 28.1723267,0.998869388 26.3932933,0.800012245 C24.05776,0.539012245 22.1091267,2.37133878 22.1091267,4.66529796 C22.1091267,6.21709388 22.9518267,7.55227755 24.3527933,8.17725714 L24.3527933,16.0321143 C23.6514267,16.062298 23.4358933,16.1013592 22.99246,16.1546245 L17.4150933,10.5564408 L15.8727933,12.150849 Z" id="Fill-6"></path>
                            <path d="M18.2816433,9.64152041 C18.2816433,11.390398 16.8700767,12.8090306 15.12991,12.8090306 C13.3879767,12.8090306 11.9781767,11.390398 11.9781767,9.64152041 C11.9781767,7.89264286 13.3879767,6.4740102 15.12991,6.4740102 C16.8700767,6.4740102 18.2816433,7.89264286 18.2816433,9.64152041 Z M33.32481,9.64152041 C33.32481,11.390398 34.7363767,12.8090306 36.4765433,12.8090306 C38.2184767,12.8090306 39.6282767,11.390398 39.6282767,9.64152041 C39.6282767,7.89264286 38.2184767,6.4740102 36.4765433,6.4740102 C34.7363767,6.4740102 33.32481,7.89264286 33.32481,9.64152041 Z" id="Combined-Shape"></path>
                        </g>
                    </g>
                </g>
            </g>
        </g>
    </g>
</svg>