<?xml version="1.0" encoding="UTF-8"?>
<svg width="28px" height="21px" viewBox="0 0 28 21" version="1.1" xmlns="http://www.w3.org/2000/svg" xmlns:xlink="http://www.w3.org/1999/xlink">
    <!-- Generator: Sketch 41.2 (35397) - http://www.bohemiancoding.com/sketch -->
    <title>Shape</title>
    <desc>Created with Sketch.</desc>
    <defs></defs>
    <g id="Symbols" stroke="none" stroke-width="1" fill="none" fill-rule="evenodd">
        <g id="footer" transform="translate(-1168.000000, -184.000000)" fill="#FFFFFF">
            <g id="Page-1">
                <g transform="translate(1013.000000, 182.000000)">
                    <path d="M181.74167,2 L156.25865,2 C155.563164,2 155,2.56220535 155,3.25609268 L155,20.8704753 C155,21.5627646 155.563484,22.1252896 156.25865,22.1252896 L181.74135,22.1252896 C182.437475,22.1252896 183,21.5627646 183,20.8704753 L183,3.25609268 C183.000319,2.56220535 182.437475,2 181.74167,2 Z M157.51634,5.82101476 L164.89181,10.7833799 L157.51634,18.6171793 L157.51634,5.82101476 Z M169.00016,10.5190571 L160.070715,4.51026767 L177.930883,4.51026767 L169.00016,10.5190571 Z M165.948462,11.4945265 L168.296684,13.0737514 C168.509229,13.2156612 168.755973,13.2878945 169.000479,13.2878945 C169.245945,13.2878945 169.49173,13.2156612 169.704275,13.0737514 L172.052177,11.4945265 L179.697403,19.614063 L158.304515,19.614063 L165.948462,11.4945265 Z M173.10851,10.7833799 L180.48334,5.82069515 L180.48334,18.6159008 L173.10851,10.7833799 Z" id="Shape"></path>
                </g>
            </g>
        </g>
    </g>
</svg>