<?xml version="1.0" encoding="UTF-8"?>
<svg width="24px" height="23px" viewBox="0 0 24 23" version="1.1" xmlns="http://www.w3.org/2000/svg" xmlns:xlink="http://www.w3.org/1999/xlink">
    <!-- Generator: Sketch 41.2 (35397) - http://www.bohemiancoding.com/sketch -->
    <title>LinkedIn_3_</title>
    <desc>Created with Sketch.</desc>
    <defs></defs>
    <g id="Symbols" stroke="none" stroke-width="1" fill="none" fill-rule="evenodd">
        <g id="footer" transform="translate(-1069.000000, -183.000000)" fill="#FFFFFF">
            <g id="Page-1">
                <g transform="translate(1013.000000, 182.000000)">
                    <path d="M80,15.0374948 L80,23.8930438 L74.8539772,23.8930438 L74.8539772,15.6264718 C74.8539772,13.5480919 74.1119906,12.1355491 72.2499723,12.1355491 C70.8259785,12.1355491 69.9859672,13.0918914 69.6109837,14.0122589 C69.4759675,14.3436994 69.4349607,14.8078664 69.4349607,15.266071 L69.4349607,23.8919916 L64.2940073,23.8919916 C64.2940073,23.8919916 64.3630211,9.89643424 64.2940073,8.44696451 L69.4360148,8.44696451 L69.4360148,10.6361253 C69.4290381,10.6541127 69.4140307,10.6690438 69.4070039,10.6890355 L69.4360148,10.6890355 L69.4360148,10.6361253 C70.122991,9.5839833 71.3399935,8.0845595 74.0729915,8.0845595 C77.4650089,8.0846096 80,10.2917578 80,15.0374948 Z M58.9109784,1 C57.152004,1 56,2.152 56,3.67136534 C56,5.14979541 57.1180241,6.34072651 58.8449761,6.34072651 L58.8759947,6.34072651 C60.6739682,6.34072651 61.787977,5.14979541 61.787977,3.67136534 C61.7529932,2.152 60.6740184,1 58.9109784,1 Z M56.3070237,23.8929937 L61.450035,23.8929937 L61.450035,8.44601253 L56.3070237,8.44601253 L56.3070237,23.8929937 Z" id="LinkedIn_3_"></path>
                </g>
            </g>
        </g>
    </g>
</svg>