<?xml version="1.0" encoding="UTF-8"?>
<svg width="180px" height="62px" viewBox="0 0 180 62" version="1.1" xmlns="http://www.w3.org/2000/svg" xmlns:xlink="http://www.w3.org/1999/xlink">
    <!-- Generator: Sketch 41.2 (35397) - http://www.bohemiancoding.com/sketch -->
    <title>Logo</title>
    <desc>Created with Sketch.</desc>
    <defs>
        <polygon id="path-1" points="0 61.0816396 179.951924 61.0816396 179.951924 0 0 0"></polygon>
    </defs>
    <g id="Page-1" stroke="none" stroke-width="1" fill="none" fill-rule="evenodd">
        <g id="00登录" transform="translate(-340.000000, -36.000000)">
            <g id="Logo" transform="translate(340.000000, 36.000000)">
                <g id="Page-1">
                    <path d="M53.7353255,48.6170524 C54.577214,48.6170524 55.0529514,48.1065167 55.0529514,47.4348967 L55.0529514,47.4138218 C55.0529514,46.6636202 54.5427356,46.3056734 53.6955054,46.3056734 L52.0581853,46.3056734 L52.0581853,48.6170524 L53.7353255,48.6170524 Z M50.2967104,45.5739327 C50.2967104,45.0841451 50.6238507,44.7056135 51.1105953,44.7056135 L53.8442644,44.7056135 C54.8489946,44.7056135 55.6220881,44.9866124 56.1415306,45.5090742 C56.5776097,45.9527911 56.8145881,46.5771967 56.8145881,47.323314 L56.8145881,47.3483099 C56.8145881,48.5989182 56.1954335,49.3701948 55.23975,49.767024 L56.4471421,51.2439018 C56.6179155,51.4575916 56.7270162,51.639424 56.7270162,51.9158485 C56.7270162,52.406943 56.3220162,52.7171854 55.9079514,52.7171854 C55.5136349,52.7171854 55.2538327,52.4920596 55.0511709,52.2340961 L53.3628615,50.0393642 L52.0581853,50.0393642 L52.0581853,51.8475592 C52.0581853,52.3322823 51.6624119,52.7171854 51.1785809,52.7171854 C50.6918363,52.7171854 50.2967104,52.3322823 50.2967104,51.8475592 L50.2967104,45.5739327 Z" id="Fill-1" fill="#D6D6D7"></path>
                    <path d="M72.3169101,48.6170524 L72.3169101,48.6774999 C72.3169101,47.3130216 71.3231871,46.1710553 69.9252734,46.1710553 C68.5338345,46.1710553 67.5605072,47.2894961 67.5605072,48.6539744 L67.5605072,48.6774999 C67.5605072,50.0419781 68.5539065,51.1785532 69.9511727,51.1785532 C71.3458489,51.1785532 72.3169101,50.0627263 72.3169101,48.698248 M65.7988705,48.6170524 L65.7988705,48.6774999 C65.7988705,46.4187264 67.5177734,44.5659309 69.9516583,44.5659309 C72.3805252,44.5659309 74.0785468,46.3937306 74.0785468,48.6539744 L74.0785468,48.6774999 C74.0785468,50.9401943 72.3596439,52.7916828 69.925759,52.7916828 C67.4964065,52.7916828 65.7988705,50.9635564 65.7988705,48.698248" id="Fill-3" fill="#D6D6D7"></path>
                    <path d="M86.0880594,51.106196 C86.8516025,51.106196 87.2907572,50.8448017 87.2907572,50.2565012 L87.2907572,50.235753 C87.2907572,49.6987511 86.9249299,49.3282246 86.0336709,49.3282246 L83.9435989,49.3282246 L83.9435989,51.106196 L86.0880594,51.106196 Z M85.6280234,47.9059129 C86.3928615,47.9059129 86.9383651,47.6667371 86.9383651,47.0707581 L86.9383651,47.0485396 C86.9383651,46.5247708 86.4700737,46.3056897 85.7401996,46.3056897 L83.9435989,46.3056897 L83.9435989,47.9059129 L85.6280234,47.9059129 Z M82.3580773,45.573949 C82.3580773,45.0815475 82.7187248,44.7056298 83.2040126,44.7056298 L86.0003255,44.7056298 C86.9014586,44.7056298 87.5677176,44.9552614 88.0152896,45.4069834 C88.3858112,45.770975 88.5238867,46.2119145 88.5238867,46.7562681 L88.5238867,46.7812639 C88.5238867,47.6770295 88.0989766,48.1746589 87.5306493,48.4914361 C88.4479694,48.8462789 89.052232,49.3806669 89.052232,50.4502597 L89.052232,50.470191 C89.052232,51.9263206 87.8676637,52.7064192 86.0880594,52.7064192 L83.2040126,52.7064192 C82.7187248,52.7064192 82.3580773,52.2680937 82.3580773,51.7783061 L82.3580773,45.573949 Z" id="Fill-5" fill="#D6D6D7"></path>
                    <path d="M102.616786,48.6170524 L102.616786,48.6774999 C102.616786,47.3130216 101.619016,46.1710553 100.223692,46.1710553 C98.8238363,46.1710553 97.8603831,47.2894961 97.8603831,48.6539744 L97.8603831,48.6774999 C97.8603831,50.0419781 98.8476313,51.1785532 100.243117,51.1785532 C101.643135,51.1785532 102.616786,50.0627263 102.616786,48.698248 M96.0987464,48.6170524 L96.0987464,48.6774999 C96.0987464,46.4187264 97.8194299,44.5659309 100.243279,44.5659309 C102.677811,44.5659309 104.378423,46.3937306 104.378423,48.6539744 L104.378423,48.6774999 C104.378423,50.9401943 102.657739,52.7916828 100.223854,52.7916828 C97.7977392,52.7916828 96.0987464,50.9635564 96.0987464,48.698248" id="Fill-7" fill="#D6D6D7"></path>
                    <path d="M113.715,46.3057224 L112.051619,46.3057224 C111.616187,46.3057224 111.254245,45.9482657 111.254245,45.508143 C111.254245,45.0629558 111.616187,44.7054991 112.051619,44.7054991 L117.117356,44.7054991 C117.553435,44.7054991 117.91473,45.0629558 117.91473,45.508143 C117.91473,45.9482657 117.553435,46.3057224 117.117356,46.3057224 L115.476637,46.3057224 L115.476637,51.8489152 C115.476637,52.3334749 115.071313,52.718378 114.591205,52.718378 C114.110612,52.718378 113.715,52.3334749 113.715,51.8489152 L113.715,46.3057224 Z" id="Fill-9" fill="#D6D6D7"></path>
                    <path d="M126.574835,51.8173845 L126.574835,45.5739817 C126.574835,45.0830505 126.947622,44.7054991 127.427892,44.7054991 L131.795644,44.7054991 C132.222496,44.7054991 132.570842,45.0788029 132.570842,45.5133709 C132.570842,45.9432011 132.222496,46.3057224 131.795644,46.3057224 L128.336471,46.3057224 L128.336471,47.9059456 L131.293522,47.9059456 C131.719727,47.9059456 132.070176,48.2818633 132.070176,48.7113668 C132.070176,49.1407069 131.719727,49.5060054 131.293522,49.5060054 L128.336471,49.5060054 L128.336471,51.1062287 L131.85068,51.1062287 C132.286921,51.1062287 132.626687,51.4792057 132.626687,51.9139371 C132.626687,52.3449109 132.286921,52.7062885 131.85068,52.7062885 L127.427892,52.7062885 C126.947622,52.7062885 126.574835,52.2681263 126.574835,51.7783388" id="Fill-11" fill="#D6D6D7"></path>
                    <path d="M144.600264,48.6170524 C145.453484,48.6170524 145.952692,48.1065167 145.952692,47.4348967 L145.952692,47.4138218 C145.952692,46.6636202 145.418358,46.3056734 144.566757,46.3056734 L142.781811,46.3056734 L142.781811,48.6170524 L144.600264,48.6170524 Z M141.19629,45.5739327 C141.19629,45.0841451 141.499473,44.7056135 141.980067,44.7056135 L144.72102,44.7056135 C145.713448,44.7056135 146.512603,44.9866124 147.026056,45.5090742 C147.462297,45.9527911 147.714329,46.5771967 147.714329,47.323314 L147.714329,47.3483099 C147.714329,48.5989182 147.080121,49.3701948 146.119419,49.767024 L147.324869,51.2439018 C147.489491,51.4575916 147.6062,51.639424 147.6062,51.9158485 C147.6062,52.406943 147.201038,52.7171854 146.77548,52.7171854 C146.380678,52.7171854 146.12816,52.4920596 145.923879,52.2340961 L144.229905,50.0393642 L142.781811,50.0393642 L142.781811,51.8475592 C142.781811,52.3322823 142.469239,52.7171854 141.989779,52.7171854 C141.509185,52.7171854 141.19629,52.3322823 141.19629,51.8475592 L141.19629,45.5739327 Z" id="Fill-13" fill="#D6D6D7"></path>
                    <path d="M160.119324,48.6170524 C160.970439,48.6170524 161.454917,48.1065167 161.454917,47.4348967 L161.454917,47.4138218 C161.454917,46.6636202 160.937417,46.3056734 160.084845,46.3056734 L158.284036,46.3056734 L158.284036,48.6170524 L160.119324,48.6170524 Z M156.698514,45.5739327 C156.698514,45.0841451 157.018532,44.7056135 157.498478,44.7056135 L160.240079,44.7056135 C161.232507,44.7056135 162.022759,44.9866124 162.537345,45.5090742 C162.973101,45.9527911 163.216554,46.5771967 163.216554,47.323314 L163.216554,47.3483099 C163.216554,48.5989182 162.591086,49.3701948 161.631194,49.767024 L162.83891,51.2439018 C163.004989,51.4575916 163.123155,51.639424 163.123155,51.9158485 C163.123155,52.406943 162.719288,52.7171854 162.293083,52.7171854 C161.897309,52.7171854 161.647381,52.4920596 161.441482,52.2340961 L159.747669,50.0393642 L158.284036,50.0393642 L158.284036,51.8475592 C158.284036,52.3322823 157.970978,52.7171854 157.491518,52.7171854 C157.011572,52.7171854 156.698514,52.3322823 156.698514,51.8475592 L156.698514,45.5739327 Z" id="Fill-15" fill="#D6D6D7"></path>
                    <path d="M175.489527,49.328241 L174.397063,46.6976341 L173.303951,49.328241 L175.489527,49.328241 Z M170.609131,51.5306513 L173.358987,45.242158 C173.55566,44.8111841 173.907243,44.5277347 174.374887,44.5277347 L174.47298,44.5277347 C174.944995,44.5277347 175.282495,44.8111841 175.478358,45.242158 L178.231451,51.5185618 C178.28584,51.6392933 178.316595,51.7629655 178.316595,51.8771621 C178.316595,52.3377062 177.95789,52.7168913 177.4862,52.7168913 C177.082009,52.7168913 176.820588,52.5121869 176.658394,52.1465616 L176.134257,50.9284642 L172.661649,50.9284642 L172.114203,52.2045585 C171.962207,52.545188 171.667764,52.7345354 171.305822,52.7345354 C170.860031,52.7345354 170.507315,52.3643358 170.507315,51.9126137 C170.507315,51.7856741 170.553124,51.6513828 170.609131,51.5306513 L170.609131,51.5306513 Z" id="Fill-17" fill="#D6D6D7"></path>
                    <path d="M65.4465755,23.1922909 L65.4465755,22.1476939 C65.4465755,21.9375982 65.4090216,21.7845192 65.3174029,21.7116555 C65.2163957,21.6409157 65.0695791,21.5920677 64.8418273,21.5920677 L63.034705,21.5920677 C62.8250827,21.5920677 62.8042014,21.7258689 62.8042014,21.9375982 L62.8042014,23.3171067 C62.8042014,23.5278558 62.8250827,23.5479505 63.034705,23.5479505 L64.8418273,23.5479505 C65.0812338,23.5479505 65.2343633,23.5567726 65.3220971,23.4744334 C65.4133921,23.3930744 65.4465755,23.3064875 65.4465755,23.1192638 L65.4465755,23.1922909 Z M60.3379424,23.370039 L60.3379424,21.9375982 C60.3379424,21.7258689 60.2790216,21.5920677 60.066,21.5920677 L58.0479604,21.5920677 C57.8388237,21.5920677 57.6954065,21.7258689 57.6954065,21.9375982 L57.6954065,23.3171067 C57.6954065,23.5278558 57.8388237,23.5479505 58.0479604,23.5479505 L60.066,23.5479505 C60.2790216,23.5479505 60.3379424,23.5278558 60.3379424,23.3171067 L60.3379424,23.370039 Z M63.861054,29.0596127 L56.8438058,29.0596127 C56.6966655,29.0596127 56.614759,29.0565086 56.614759,29.1038863 C56.614759,29.1627 56.6680144,29.2190632 56.7651367,29.3131651 C57.6873129,30.2494468 58.1581942,30.9447557 58.1758381,31.4147753 C58.2043273,31.6111478 58.2676187,31.7047596 58.3652266,31.7047596 C58.4761079,31.7047596 58.882241,31.5969345 59.5854065,31.3863487 C60.3136619,31.1741292 60.9587158,30.9390377 61.5204065,30.6835248 C62.1062158,30.4257246 62.6115755,30.165964 63.034705,29.9094709 C63.4581583,29.652651 63.743536,29.4402681 63.8981223,29.3002588 C64.049795,29.1613931 64.1302446,29.1038863 64.1302446,29.0805242 C64.1302446,29.0436023 64.0438058,29.0596127 63.8765935,29.0596127 L63.861054,29.0596127 Z M62.0414676,19.2808519 C61.807241,18.9251923 61.6885899,18.6299801 61.6885899,18.2896774 C61.6885899,18.2070115 61.5825647,18.2140365 61.3706763,18.2140365 L56.9113058,18.2140365 C56.8821691,18.2140365 56.8394353,18.1893674 56.782295,18.1893674 C56.7117194,18.1893674 56.6680144,18.2223684 56.649723,18.2942518 C56.6252806,18.3617242 56.609741,18.4435733 56.5974388,18.5486212 C56.5796331,18.6678823 56.5569712,18.7422163 56.5202266,18.888107 C56.4868813,19.0400424 56.4292554,19.2808519 56.3411978,19.2808519 L62.0414676,19.2808519 Z M55.4052626,23.370039 L55.4052626,21.9375982 C55.4052626,21.7258689 55.2498669,21.5920677 55.036036,21.5920677 L53.3804245,21.5920677 C53.1525108,21.5920677 52.9984101,21.6409157 52.8996691,21.7116555 C52.8017374,21.7845192 52.7628885,21.9375982 52.7628885,22.1476939 L52.7628885,23.1192638 C52.7628885,23.3064875 52.8017374,23.3930744 52.8878525,23.4744334 C52.9789856,23.5567726 53.1330863,23.5479505 53.3804245,23.5479505 L55.036036,23.5479505 C55.2498669,23.5479505 55.4052626,23.5278558 55.4052626,23.3171067 L55.4052626,23.370039 Z M63.6849388,19.2808519 L65.4761978,19.2808519 C66.4462878,19.2808519 67.0707842,19.4973191 67.4073129,19.837295 C67.7595432,20.1395322 67.9128345,20.8010232 67.9128345,21.7258689 L67.9128345,23.4821118 C67.9128345,24.4641375 67.8030863,25.0988355 67.5356763,25.4040134 C67.266,25.719647 66.594723,25.8591662 65.4761978,25.8591662 L59.4958921,25.8591662 C59.4037878,25.8591662 59.3233381,25.9080143 59.2712158,25.9526147 C59.1961079,26.0338103 59.1040036,26.1099414 58.9864856,26.2030631 C58.866054,26.2983086 58.7193993,26.4059704 58.5526727,26.5224543 C58.4131403,26.6167196 58.3424029,26.6649141 58.3424029,26.7119651 C58.3424029,26.7461097 58.4487518,26.7482336 58.6569173,26.7482336 L66.2931583,26.7482336 C66.8177806,26.7482336 67.2271511,26.89004 67.5290396,27.1115717 C67.8299568,27.3456829 67.9798489,27.6492271 67.9798489,28.013382 C67.9798489,28.856542 67.1753525,29.9279319 65.5553525,31.2151354 C63.9149568,32.5261912 61.8740935,33.4271847 59.4382662,33.9078234 C56.968446,34.4263644 54.4644712,34.6727285 51.9227806,34.6727285 C51.0405863,34.6727285 50.4669173,34.6496931 50.2004784,34.592023 C49.8929245,34.5199762 49.6593453,34.4038191 49.5063777,34.2285216 C49.3360899,34.0424415 49.2486799,33.7848047 49.2486799,33.4456456 C49.2486799,33.1184126 49.3252446,32.8589788 49.4744892,32.6836813 C49.6211439,32.4948239 49.9108921,32.4021923 50.3450288,32.4021923 C50.9386079,32.4021923 51.4946331,32.4021923 52.0270252,32.379647 C52.5624928,32.3665773 53.075946,32.3458291 53.5651187,32.3208333 C54.0562338,32.2870154 54.4570252,32.2620196 54.7639317,32.2489499 C55.0729424,32.2254244 55.2977806,32.2043495 55.4379604,32.1677543 C55.7021331,32.1572985 55.8358381,32.1100841 55.8358381,32.0382007 C55.8358381,31.9816742 55.6223309,31.6884225 55.1883561,31.1515839 C54.7639317,30.6015123 54.4500647,30.2139952 54.2365576,30.0019391 C54.0848849,29.86291 53.9699568,29.7451192 53.8940396,29.664087 C53.8142374,29.5828914 53.7566115,29.51983 53.7138777,29.4884627 C53.6703345,29.4544814 53.6319712,29.4399414 53.5989496,29.4399414 C53.5651187,29.4544814 53.523518,29.4637936 53.4841835,29.4990818 C52.0383561,30.1561618 50.9781043,30.4953209 50.3055324,30.4953209 C50.0959101,30.4953209 49.9155863,30.4472897 49.7781583,30.3657673 C49.638464,30.2847351 49.5269353,30.1654739 49.4395252,30.0396779 C49.3590755,29.8970547 49.2961079,29.7572087 49.2598489,29.6168726 C49.2265036,29.4637936 49.2070791,29.3249279 49.2070791,29.193904 C49.2070791,28.5980884 49.6782842,28.2104079 50.6193993,28.0246546 C51.1804424,27.9302259 51.8526906,27.7206204 52.6421331,27.3933874 C53.0306223,27.2311595 53.402277,27.0635405 53.7409101,26.8996789 C54.0848849,26.7490504 54.3820791,26.6064272 54.6193813,26.4675614 C54.856036,26.3368643 55.041054,26.2215241 55.1883561,26.1284023 C55.3278885,26.035444 55.3979784,25.9656844 55.3979784,25.9423223 C55.3979784,25.8949446 55.292277,25.8591662 55.0837878,25.8591662 L52.7238777,25.8591662 C51.6042194,25.8591662 50.9352086,25.7312464 50.6677986,25.4275389 C50.4020072,25.1210541 50.2966295,24.4786776 50.2966295,23.4821118 L50.2966295,21.7258689 C50.2966295,20.7897505 50.4258022,20.1292398 50.7348129,19.8129527 C51.0533741,19.4849029 51.7021511,19.2808519 52.7238777,19.2808519 L54.4274029,19.2808519 C54.2470791,19.1029404 54.1556223,18.789594 54.1556223,18.4380187 C54.1556223,18.319411 54.1381403,18.2757909 54.113536,18.2377253 C54.0848849,18.2039074 54.0168993,18.2140365 53.8993813,18.2140365 L50.2398129,18.2140365 C49.9050647,18.2140365 49.6308561,18.0946119 49.4226906,17.8730803 C49.2070791,17.661841 49.103482,17.3782282 49.103482,17.0640649 C49.103482,16.7348715 49.2070791,16.4484813 49.4226906,16.2372421 C49.6308561,16.0157104 49.9050647,15.9026574 50.2398129,15.9026574 L53.8357662,15.9026574 C54.051054,15.9026574 54.1556223,15.8618145 54.1556223,15.7786584 C54.1556223,15.3904879 54.271036,15.092335 54.5028345,14.8570802 C54.7362518,14.623459 55.0255144,14.5064851 55.3732122,14.5064851 C55.7268993,14.5064851 56.0166475,14.6259096 56.248446,14.8595307 C56.4825108,15.0946222 56.5974388,15.3899978 56.5974388,15.7781683 C56.5974388,15.8613244 56.7020072,15.9026574 56.9113058,15.9026574 L61.3706763,15.9026574 C61.516036,15.9026574 61.6023129,15.884033 61.6358201,15.8513587 C61.6702986,15.8139467 61.6885899,15.7476179 61.6885899,15.6304805 C61.6885899,15.2450873 61.807241,14.9395827 62.0369353,14.7089023 C62.2690576,14.4738108 62.558482,14.3574903 62.906018,14.3574903 C63.2590576,14.3574903 63.5502626,14.4751177 63.7831942,14.7102092 C64.0141835,14.9407263 64.1302446,15.248028 64.1302446,15.6334212 C64.1302446,15.7505586 64.1483741,15.8139467 64.1813957,15.8513587 C64.2191115,15.884033 64.3042554,15.9026574 64.443464,15.9026574 L68.1498129,15.9026574 C68.4869892,15.9026574 68.7587698,16.0148935 68.9679065,16.2362618 C69.177205,16.4476645 69.2861439,16.7298069 69.2861439,17.0591638 C69.2861439,17.373327 69.177205,17.6602073 68.9679065,17.8716099 C68.7587698,18.0929782 68.4869892,18.2140365 68.1498129,18.2140365 L64.443464,18.2140365 C64.2346511,18.2140365 64.1302446,18.2070115 64.1302446,18.2896774 C64.1302446,18.6299801 64.0017194,18.9251923 63.7475827,19.2808519 L63.6849388,19.2808519 Z" id="Fill-19" fill="#E84737"></path>
                    <path d="M93.4563561,23.5478851 L93.4563561,33.6553492 C93.4563561,34.370426 92.9968058,34.7210211 92.1307986,34.7210211 C91.2735324,34.7210211 90.813982,34.370426 90.813982,33.6553492 L90.813982,15.8209063 C90.813982,15.4229335 90.9541619,15.1066464 91.1953489,14.861916 C91.4394496,14.6157152 91.7536403,14.4868151 92.1353309,14.4868151 C92.5199353,14.4868151 92.8396295,14.6157152 93.081464,14.861916 C93.3281547,15.1066464 93.4563561,15.4229335 93.4563561,15.8209063 L93.4563561,20.3797862 C93.4563561,20.5207758 93.5068597,20.6253335 93.6344137,20.6834937 C94.818982,21.164786 95.9629209,21.6676433 97.0863022,22.1948429 C98.2236043,22.7328251 99.3356547,23.3064222 100.449486,23.9161244 C102.676014,25.1095527 103.939899,25.8586108 104.230457,26.162645 C104.543838,26.4557334 104.692597,26.7609112 104.692597,27.0750745 C104.692597,27.2284803 104.670259,27.3921784 104.600169,27.568783 C104.543191,27.7324811 104.447525,27.8961793 104.332112,28.0361886 C104.229647,28.1881241 104.09141,28.3060783 103.928083,28.3992 C103.763784,28.4933019 103.590583,28.5403529 103.415601,28.5403529 C103.229773,28.5403529 103.034558,28.505228 102.825097,28.4330179 C102.720691,28.3861303 102.430619,28.2222687 101.953748,27.943557 C101.467975,27.6605977 100.773874,27.2518424 99.8792158,26.7151672 C98.9758165,26.1757147 98.162741,25.6963829 97.4200791,25.2853404 C96.6908525,24.8648223 96.0147194,24.5006674 95.4122374,24.1853605 C94.230259,23.5638956 93.6111043,23.248752 93.553964,23.248752 C93.4715719,23.248752 93.4563561,23.3288041 93.4563561,23.4822098" id="Fill-21" fill="#E84737"></path>
                    <path d="M130.365842,28.3545832 C130.585176,28.3545832 130.783791,28.4017976 130.956831,28.493449 C131.060914,28.5509557 131.213072,28.6793656 131.408288,28.8678963 C131.61791,29.0539764 131.874151,29.3364456 132.174583,29.6875308 C132.487802,30.0266899 132.752622,30.318798 132.973737,30.5767615 C133.206669,30.8348884 133.392173,31.0665491 133.556309,31.2668425 C133.716399,31.4788986 133.856579,31.6519089 133.971507,31.806295 C134.077209,31.9713001 134.181777,32.1101658 134.263198,32.2397194 C134.459385,32.5068317 134.552784,32.7767213 134.552784,33.0582103 C134.552784,33.351462 134.377478,33.6210249 134.03059,33.866082 C133.682892,34.1371152 133.324187,34.2758176 132.973737,34.2758176 C132.61568,34.2758176 132.290644,34.054776 131.989079,33.6210249 C131.688,33.1655453 131.318126,32.6706932 130.898558,32.1336913 C130.48077,31.5953824 129.983989,30.9997302 129.427317,30.3423235 C129.218342,30.1196482 129.113126,29.8760614 129.113126,29.6064986 C129.113126,29.4767816 129.137245,29.3364456 129.204745,29.1846735 C129.262371,29.0431938 129.35836,28.9043281 129.472155,28.7867007 C129.599061,28.6687465 129.727748,28.5640254 129.889133,28.4815228 C130.041129,28.3861139 130.203971,28.3545832 130.365842,28.3545832 L130.365842,28.3545832 Z M139.564781,18.5696144 C139.944367,18.5696144 140.249169,18.663553 140.46818,18.8927631 C140.700626,19.1263842 140.80568,19.4201261 140.80568,19.805846 C140.80568,20.1802934 140.700626,20.4864515 140.46818,20.7194191 C140.249169,20.943238 139.944367,21.0587416 139.564781,21.0587416 L133.079439,21.0587416 C132.835662,21.0587416 132.707784,21.1010548 132.707784,21.2175386 C132.707784,21.3709444 133.021165,22.1039921 133.647766,23.4266472 C134.273881,24.7247966 135.156723,26.1167213 136.303737,27.5808561 C137.488144,29.0445008 138.763522,30.3325212 140.154313,31.4560266 C140.687676,31.8778516 140.952982,32.2753343 140.952982,32.6368753 C140.952982,33.012793 140.80568,33.3398626 140.514475,33.631644 C140.211453,33.9489113 139.911669,34.10052 139.611399,34.10052 C139.297371,34.10052 138.996939,34.0062547 138.683072,33.8334077 C138.391867,33.6695462 137.717838,33.0582103 136.66568,32.0067517 C135.642658,30.9394461 134.704457,29.8040146 133.845086,28.5875509 C132.986687,27.3684732 132.245158,26.0708139 131.61791,24.6986572 C131.525806,24.5245033 131.455716,24.4444513 131.38773,24.4444513 C131.327353,24.4444513 131.259367,24.5347957 131.188629,24.7365594 C130.792209,25.7773988 130.308054,26.772821 129.705086,27.7574606 C129.113126,28.727887 128.417892,29.6640053 127.616633,30.554543 C126.816183,31.4318476 125.936579,32.2397194 124.983647,32.9533258 C124.507586,33.3277731 124.112946,33.6210249 123.798917,33.8437001 C123.476471,34.054776 123.24354,34.2052411 123.094619,34.2758176 C122.791597,34.4172973 122.524187,34.4854231 122.292712,34.4854231 C122.014942,34.4749674 121.758863,34.3808654 121.549079,34.2052411 C121.342371,34.0428499 121.191669,33.8437001 121.109439,33.6079552 C121.030284,33.3749875 121.030284,33.131564 121.097622,32.8721302 C121.178072,32.6130231 121.364223,32.3903478 121.654295,32.195119 C123.058036,31.1724138 124.27514,30.1196482 125.285212,29.0213021 C126.305644,27.9196885 127.117101,26.8197086 127.719583,25.7198921 C128.024223,25.1699838 128.290014,24.6409871 128.487982,24.1374763 C128.6955,23.6470353 128.846687,23.1801197 128.962101,22.7452249 C129.195518,21.856321 129.322263,21.3568945 129.322263,21.2404106 C129.322263,21.1115106 129.204745,21.0587416 128.98541,21.0587416 L122.314727,21.0587416 C121.933198,21.0587416 121.632766,20.9378467 121.412137,20.7037355 C121.178072,20.4675004 121.076255,20.1626493 121.076255,19.7980042 C121.076255,19.4235569 121.178072,19.1396173 121.412137,18.9056694 C121.632766,18.6650233 121.933198,18.5696144 122.314727,18.5696144 L129.218342,18.5696144 C129.343468,18.5696144 129.447227,18.5255041 129.480248,18.489399 C129.527676,18.4526404 129.569601,18.3495531 129.569601,18.2101972 L129.569601,15.7849482 C129.569601,15.3528308 129.676597,15.0117112 129.933647,14.7676343 C130.176453,14.5108144 130.503108,14.3824045 130.908432,14.3824045 C131.314079,14.3824045 131.607227,14.5108144 131.860716,14.7676343 C132.117281,15.0117112 132.211975,15.3528308 132.211975,15.7849482 L132.211975,18.2101972 C132.211975,18.3252107 132.261831,18.4410411 132.296957,18.4763293 C132.343737,18.5255041 132.454295,18.5696144 132.582011,18.5696144 L139.564781,18.5696144 Z" id="Fill-23" fill="#E84737"></path>
                    <path d="M175.019406,24.0812766 L175.019406,22.5705809 C175.019406,22.2792896 174.859155,22.1255571 174.4875,22.1255571 L173.524532,22.1255571 C173.328669,22.1255571 173.25777,22.2059358 173.25777,22.3848276 L173.25777,24.2670299 C173.25777,24.4444513 173.328669,24.6146843 173.524532,24.6146843 L174.4875,24.6146843 C174.685953,24.6146843 174.816745,24.5467218 174.912248,24.4982005 C174.991079,24.4509861 175.019406,24.2899019 175.019406,24.1033317 M170.791511,24.2590247 L170.791511,22.3848276 C170.791511,22.2059358 170.64955,22.1255571 170.451097,22.1255571 L169.488939,22.1255571 C169.128291,22.1255571 169.029874,22.2792896 169.029874,22.5705809 L169.029874,24.1033317 C169.029874,24.3867811 169.142698,24.6146843 169.498651,24.6146843 L170.451097,24.6146843 C170.64955,24.6146843 170.791511,24.4444513 170.791511,24.2670299 M166.392032,16.700155 C166.648273,16.3000584 167.005036,16.0804872 167.481906,16.0804872 L170.427788,16.0804872 C170.636115,16.0804872 170.791511,16.0213467 170.791511,15.8099441 L170.791511,15.4588589 C170.791511,15.0844115 170.882644,14.7800505 171.112986,14.546266 C171.346403,14.3111745 171.634371,14.1966511 171.99518,14.1966511 C172.366187,14.1966511 172.678435,14.3111745 172.90991,14.546266 C173.130378,14.7800505 173.25777,15.0844115 173.25777,15.4588589 L173.25777,15.8099441 C173.25777,16.0213467 173.340486,16.0804872 173.549299,16.0804872 L177.040036,16.0804872 C177.398094,16.0804872 177.701763,16.2195163 177.931942,16.4539543 C178.164388,16.6882289 178.282554,16.9937335 178.282554,17.3441652 C178.282554,17.6957406 178.164388,17.986215 177.931942,18.2199995 C177.701763,18.4531305 177.398094,18.5696144 177.040036,18.5696144 L173.549299,18.5696144 C173.340486,18.5696144 173.25777,18.6893656 173.25777,18.8929265 L173.25777,19.4545975 C173.25777,19.666817 173.340486,19.814178 173.549299,19.814178 L175.394784,19.814178 C176.170791,19.814178 176.707554,19.9460187 177.01964,20.2492361 C177.333022,20.5562111 177.485665,21.0476323 177.485665,21.7638527 L177.485665,24.8870245 C177.485665,25.612557 177.320558,26.1415537 177.006691,26.4439543 C176.696061,26.7608949 176.157194,26.9260634 175.394784,26.9260634 L174.429874,26.9260634 C174.219604,26.9260634 174.115522,26.9598813 174.115522,27.0410769 C174.115522,27.1837001 174.534604,27.7265834 175.380054,28.6746279 C176.203975,29.6123799 177.016727,30.3687897 177.817176,30.9657489 C178.292752,31.3183045 178.535396,31.7371888 178.535396,32.2176642 C178.535396,32.3681293 178.502374,32.5218618 178.430827,32.6724903 C178.373201,32.8255693 178.292752,32.9536526 178.188183,33.0613143 C178.083129,33.1763278 177.955576,33.2717367 177.817176,33.3398626 C177.678453,33.4094589 177.537626,33.4458907 177.398094,33.4458907 C177.108022,33.4458907 176.831871,33.3619178 176.552968,33.2101457 C176.412788,33.1405495 176.227932,33.0016838 176.008435,32.791098 C175.786673,32.5788785 175.519586,32.2869337 175.208633,31.9124864 C174.894119,31.5627081 174.604209,31.2093357 174.325791,30.8687063 C174.048183,30.5190914 173.781583,30.1773184 173.549299,29.8383226 C173.44473,29.7006005 173.389532,29.6298607 173.331259,29.6298607 C173.274766,29.6298607 173.25777,29.7216754 173.25777,29.9204985 L173.25777,33.6314806 C173.25777,34.0193244 173.124227,34.3231953 172.903597,34.5576333 C172.672122,34.7891306 172.361978,34.9098621 171.990971,34.9098621 C171.630162,34.9098621 171.350612,34.7891306 171.117032,34.5576333 C170.886691,34.3231953 170.791511,34.0193244 170.791511,33.6314806 L170.791511,30.0869739 C170.791511,29.7804891 170.660881,29.7804891 170.452716,30.0869739 C169.990576,30.753366 169.384047,31.4318476 168.678939,32.1335279 C167.969946,32.835535 167.441601,33.3042477 167.093741,33.5269229 C166.720629,33.7718167 166.395108,33.8910779 166.118795,33.8910779 C165.81464,33.8910779 165.523112,33.7391424 165.255701,33.4195879 C164.979388,33.1184943 164.838561,32.7909346 164.838561,32.4741574 C164.838561,32.1465977 164.978255,31.8639651 165.254406,31.6425968 C166.463094,30.7063151 167.528849,29.7478148 168.467374,28.7525561 C169.441835,27.7336084 169.928094,27.1694868 169.928094,27.0410769 C169.928094,26.9598813 169.814137,26.9260634 169.593507,26.9260634 L168.51464,26.9260634 C167.772464,26.9260634 167.248975,26.771514 166.948543,26.4794059 C166.648273,26.1876245 166.486241,25.698327 166.449658,24.9727945 C166.125432,25.3130972 165.777734,25.5035883 165.383417,25.5035883 L164.269424,25.5035883 C164.060612,25.5035883 163.945198,25.5771054 163.945198,25.7878546 L163.932248,27.0500623 C163.932248,27.188928 164.013831,27.2815596 164.199335,27.2815596 L165.001727,27.2815596 C165.372734,27.2815596 165.660216,27.3714139 165.8925,27.5939258 C166.125432,27.8273836 166.239712,28.1211254 166.239712,28.4717206 C166.239712,28.8228058 166.125432,29.1500388 165.8925,29.3830064 C165.660216,29.6149939 165.372734,29.7706868 165.001727,29.7706868 L163.932248,29.7706868 C163.736061,29.7706868 163.63295,29.8089158 163.609802,29.9845401 C163.432392,31.0845199 163.146529,32.025376 162.750755,32.8345548 C162.552788,33.2197846 162.380234,33.5368886 162.218849,33.7950155 C162.053417,34.051672 161.891709,34.2470642 161.74214,34.3988363 C161.590791,34.5403159 161.42795,34.6438934 161.275791,34.7012368 C161.125737,34.7589069 160.963543,34.7799818 160.790989,34.7799818 C160.453813,34.7799818 160.152572,34.6509184 159.887266,34.404881 C159.64009,34.1611308 159.515612,33.9136231 159.515612,33.6463474 C159.515612,33.3872403 159.559802,33.1760011 159.677806,33.022922 C160.11777,32.4024373 160.453813,31.759244 160.709406,31.0913815 C160.83518,30.7746043 160.930036,30.5310175 160.999155,30.3318677 C161.056942,30.145951 161.090773,30.004308 161.103723,29.9102061 C161.103723,29.8185547 161.090773,29.7973164 161.043993,29.7724839 C160.999155,29.7409532 160.940234,29.7706868 160.859946,29.7706868 L159.700468,29.7706868 C159.340468,29.7706868 159.039388,29.6086224 158.806457,29.3767983 C158.574496,29.1438306 158.459568,28.8407766 158.459568,28.5030879 C158.459568,28.1390963 158.574496,27.8620183 158.806457,27.614674 C159.039388,27.3813796 159.316511,27.2815596 159.65304,27.2815596 L161.228849,27.2815596 C161.358183,27.2815596 161.450612,27.2194785 161.48509,27.1595212 C161.543687,27.1018511 161.568129,26.6555203 161.568129,25.7626954 C161.568129,25.5766153 161.462914,25.5035883 161.253615,25.5035883 L159.106241,25.5035883 C158.773435,25.5035883 158.49259,25.3555738 158.261115,25.1214625 C158.030773,24.8857175 157.913903,24.5761286 157.913903,24.2256969 C157.913903,23.8741216 158.030773,23.5908355 158.261115,23.3565609 C158.49259,23.1227763 158.794478,23.0144611 159.178435,23.0144611 L159.549442,23.0144611 C159.712932,23.0144611 159.781565,22.9260771 159.781565,22.799791 C159.781565,22.5516298 159.629245,21.7726748 159.316511,20.4828573 C159.306151,20.4246971 159.306151,20.3379468 159.306151,20.2212996 C159.306151,19.9051759 159.419622,19.6449252 159.65304,19.4474091 C159.896978,19.2356797 160.18705,19.1291616 160.523579,19.1291616 C161.068112,19.1291616 161.438633,19.561279 161.638219,20.4073797 C161.729838,20.824467 161.810126,21.2366531 161.857068,21.6220463 C161.904982,21.9971471 161.938651,22.3769857 161.971835,22.714021 C161.984784,22.902715 162.066367,23.0144611 162.228076,23.0144611 L162.565252,23.0144611 C162.656871,23.0144611 162.737806,22.9641427 162.807248,22.8927493 C162.856457,22.8443914 162.936906,22.5428077 163.041475,22.0058058 C163.099101,21.7493127 163.156241,21.475012 163.203022,21.1685272 C163.246888,20.8767458 163.293669,20.5576814 163.341745,20.2191758 C163.423651,19.5400407 163.712752,19.2013717 164.199335,19.2013717 C164.699029,19.2013717 165.045917,19.3261875 165.254083,19.5986911 C165.463867,19.8551842 165.568921,20.0757357 165.568921,20.2755389 C165.568921,20.474362 165.512428,20.8612255 165.383417,21.4243669 C165.311871,21.7025884 165.254083,21.93817 165.207626,22.1253937 C165.175737,22.3126174 165.140126,22.4416808 165.103543,22.5339857 C165.034424,22.7690772 165.022608,22.9085964 165.059514,22.9319585 C165.092212,22.9693706 165.153723,22.9791728 165.340198,22.9791728 C165.781942,22.9791728 166.211385,23.1565942 166.3875,23.5305514 L166.3875,21.7638527 C166.3875,21.0254138 166.581745,20.531542 166.871817,20.2381269 C167.170629,19.9334391 167.748669,19.814178 168.51464,19.814178 L170.427788,19.814178 C170.636115,19.814178 170.791511,19.666817 170.791511,19.4545975 L170.791511,18.8929265 C170.791511,18.6893656 170.636115,18.5696144 170.427788,18.5696144 L167.481906,18.5696144 C167.005036,18.5696144 166.659281,18.3585385 166.438813,18.0074533 C166.17205,18.4057528 165.787932,18.5696144 165.311871,18.5696144 L159.596871,18.5696144 C159.22554,18.5696144 158.934335,18.4952804 158.702212,18.2601889 C158.469281,18.0259142 158.355,17.7570049 158.355,17.3923598 C158.355,17.0412746 158.469281,16.7957273 158.702212,16.5614527 C158.934335,16.3270147 159.22554,16.2582353 159.596871,16.2582353 L161.043993,16.2582353 C161.253615,16.2582353 161.358183,16.1280283 161.358183,15.9270814 C161.358183,15.7300554 161.323705,15.5111377 161.253615,15.3149286 C161.243255,15.2665707 161.228849,15.209554 161.228849,15.1275416 C161.228849,14.8475229 161.370162,14.6083472 161.638219,14.4330496 C161.904982,14.2437021 162.193597,14.1505804 162.517824,14.1505804 C162.856457,14.1505804 163.099101,14.1977947 163.261295,14.3025158 C163.341745,14.336007 163.412482,14.3922067 163.493741,14.4505303 C163.562374,14.5238841 163.618867,14.6040995 163.678273,14.7207467 C163.736061,14.8387009 163.783489,14.9894927 163.828327,15.1762263 C163.88741,15.3627964 163.932248,15.6475529 163.97045,15.9520772 C163.979676,16.1280283 164.093633,16.2582353 164.280594,16.2582353 L165.311871,16.2582353 C165.498183,16.2582353 165.695827,16.2579086 165.915809,16.3631198 C166.136924,16.4544444 166.287788,16.5362935 166.392032,16.700155" id="Fill-25" fill="#E84737"></path>
                    <mask id="mask-2" fill="white">
                        <use xlink:href="#path-1"></use>
                    </mask>
                    <g id="Clip-28"></g>
                    <polygon id="Fill-27" fill="#D6D6D7" mask="url(#mask-2)" points="49.4158273 40.2606034 179.951924 40.2606034 179.951924 39.3715361 49.4158273 39.3715361"></polygon>
                    <path d="M33.1557248,28.5257802 C33.0061565,27.7407804 32.325491,27.2263238 31.5334586,27.2263238 L5.88459173,27.2263238 C5.09255935,27.2263238 4.41189388,27.7407804 4.26232554,28.5257802 L1.97703777,40.4594101 L12.9863363,40.4594101 C13.3924694,40.4594101 13.7450234,40.7324038 13.8016781,41.1383818 C14.1403112,43.5678785 16.2083687,45.4249216 18.7089442,45.4249216 C21.2095198,45.4249216 23.2777392,43.5739232 23.6163723,41.1444266 C23.673027,40.7384486 24.0254191,40.4594101 24.431714,40.4594101 L35.4410126,40.4594101 L33.1557248,28.5257802 Z" id="Fill-29" fill="#FF4433" mask="url(#mask-2)"></path>
                    <path d="M26.0540612,43.400047 C24.8584856,46.3407329 21.9707158,48.4019903 18.7090252,48.4019903 C15.4471727,48.4019903 12.5595647,46.3407329 11.3639892,43.400047 L0.497784173,43.400047 C0.143773381,43.400047 -0.0991942446,43.7705734 0.0396906475,44.0992768 C2.9485036,50.9852194 11.0151583,58.053648 18.0824245,60.9569218 C18.4846727,61.1222537 18.9333777,61.1237241 19.3356259,60.9583922 C26.4028921,58.0551184 34.4695468,50.984566 37.3783597,44.0986233 C37.5172446,43.7699199 37.274277,43.400047 36.9202662,43.400047 L26.0540612,43.400047 Z" id="Fill-30" fill="#CDD2D2" mask="url(#mask-2)"></path>
                    <path d="M36.9201853,43.400047 L33.4825414,43.400047 C30.485509,50.2616474 24.5223615,57.1609865 18.6997176,61.07749 C18.9156529,61.0786336 19.1315881,61.0407314 19.335545,60.9569218 C26.4028112,58.053648 34.4694658,50.9837491 37.3782788,44.0978064 C37.5171637,43.7691031 37.274196,43.400047 36.9201853,43.400047" id="Fill-31" fill="#B6BFBF" mask="url(#mask-2)"></path>
                    <path d="M22.7873849,11.3808627 L25.5898489,8.58721116 C25.8028705,8.6538667 26.0291655,8.69568979 26.2638777,8.69568979 C27.5174029,8.69568979 28.533464,7.6729846 28.533464,6.40799956 C28.533464,5.14285115 27.5174029,4.11867561 26.2638777,4.11867561 C25.0105144,4.11867561 23.9942914,5.14497498 23.9942914,6.41012339 C23.9942914,6.85302335 24.121036,7.26553623 24.3366475,7.61613133 L20.8379784,11.1196318 C20.5176367,11.0810761 20.3178885,11.0529763 19.832277,11.0315746 L19.832277,5.35180322 C20.8035,4.85956508 21.5769173,3.75582765 21.4449928,2.50456581 C21.3083741,1.21033729 20.2919892,0.161329294 19.0102986,0.0178891723 C17.328464,-0.170314723 15.9383201,1.15332066 15.9383201,2.81268434 C15.9383201,3.93471937 16.5948669,4.90057131 17.5660899,5.35196659 L17.5660899,11.0315746 C17.0804784,11.0529763 16.8907662,11.0815663 16.5704245,11.1201219 L12.9221871,7.45030933 C13.0801727,7.13810651 13.1670971,6.78538758 13.1670971,6.41077687 C13.1670971,5.14579184 12.1489317,4.12014595 10.8954065,4.12014595 C9.64204317,4.12014595 8.62484892,5.14579184 8.62484892,6.41077687 C8.62484892,7.67592528 9.64042446,8.70140779 10.8939496,8.70140779 C11.1937338,8.70140779 11.4789496,8.64145047 11.7408561,8.5349323 L14.6308921,11.3808627 C9.01171942,12.6999237 4.72506475,16.7704864 3.84092806,21.5082581 L15.2270612,21.5082581 C15.2270612,23.6320868 16.7276007,24.8908637 18.5787518,24.8908637 C20.429741,24.8908637 21.9302806,23.6320868 21.9302806,21.5082581 L33.5770252,21.5082581 C32.6928885,16.7704864 28.4065576,12.6999237 22.7873849,11.3808627" id="Fill-32" fill="#CDD2D2" mask="url(#mask-2)"></path>
                    <path d="M22.7873849,11.3808627 C22.7873849,11.3808627 20.6718993,11.0351688 21.1503885,11.2104663 C25.4946691,12.8010506 28.8648129,17.0972293 29.5738058,21.5082581 L33.5770252,21.5082581 C32.6928885,16.7704864 28.4065576,12.6999237 22.7873849,11.3808627" id="Fill-33" fill="#B6BFBF" mask="url(#mask-2)"></path>
                    <path d="M31.6961709,37.6820467 L5.72178237,37.6820467 L6.77216007,31.3822807 C6.89372482,30.6462924 7.52469604,30.1669606 8.26395863,30.1669606 L29.1539946,30.1669606 C29.8934191,30.1669606 30.5243903,30.6462924 30.645955,31.3822807 L31.6961709,37.6820467 Z" id="Fill-34" fill="#79231E" mask="url(#mask-2)"></path>
                    <path d="M12.876491,35.8527604 C11.8319406,35.8527604 10.985196,34.9981644 10.985196,33.9439285 C10.985196,32.8896926 11.8319406,32.0350966 12.876491,32.0350966 C13.9210414,32.0350966 14.767786,32.8896926 14.767786,33.9439285 C14.767786,34.9981644 13.9210414,35.8527604 12.876491,35.8527604" id="Fill-35" fill="#50C3FF" mask="url(#mask-2)"></path>
                    <path d="M24.5415108,35.8527604 C23.4969604,35.8527604 22.6502158,34.9981644 22.6502158,33.9439285 C22.6502158,32.8896926 23.4969604,32.0350966 24.5415108,32.0350966 C25.5860612,32.0350966 26.4328058,32.8896926 26.4328058,33.9439285 C26.4328058,34.9981644 25.5860612,35.8527604 24.5415108,35.8527604" id="Fill-36" fill="#FFF628" mask="url(#mask-2)"></path>
                </g>
            </g>
        </g>
    </g>
</svg>