<?xml version="1.0" encoding="UTF-8"?>
<svg width="251px" height="142px" viewBox="0 0 251 142" version="1.1" xmlns="http://www.w3.org/2000/svg" xmlns:xlink="http://www.w3.org/1999/xlink">
    <!-- Generator: Sketch 41.2 (35397) - http://www.bohemiancoding.com/sketch -->
    <title>Group 2</title>
    <desc>Created with Sketch.</desc>
    <defs>
        <rect id="path-1" x="0" y="0" width="250.225007" height="142" rx="4"></rect>
    </defs>
    <g id="Page-1" stroke="none" stroke-width="1" fill="none" fill-rule="evenodd">
        <g id="13首页" transform="translate(-228.000000, -374.000000)">
            <g id="我的班级" transform="translate(223.000000, 335.000000)">
                <g id="小学" transform="translate(5.000000, 39.000000)">
                    <g id="Group-2">
                        <g id="Rectangle-2">
                            <use fill="#3EB340" xlink:href="#path-1"></use>
                            <use fill="#EC6457" xlink:href="#path-1"></use>
                        </g>
                        <path d="M133.08483,79.1785163 C131.183897,79.1785163 129.643363,77.6302714 129.643363,75.7198224 C129.643363,73.8093735 131.183897,72.2611286 133.08483,72.2611286 C134.985763,72.2611286 136.526297,73.8093735 136.526297,75.7198224 C136.526297,77.6302714 134.985763,79.1785163 133.08483,79.1785163 L133.08483,79.1785163 Z M116.884497,79.1785163 C114.983563,79.1785163 113.441263,77.6302714 113.441263,75.7198224 C113.441263,73.8093735 114.983563,72.2611286 116.884497,72.2611286 C118.783663,72.2611286 120.325963,73.8093735 120.325963,75.7198224 C120.325963,77.6302714 118.783663,79.1785163 116.884497,79.1785163 L116.884497,79.1785163 Z M145.048697,68.1277408 C144.84023,67.0411286 143.895063,66.329149 142.796197,66.329149 L107.17313,66.329149 C106.072497,66.329149 105.12733,67.0411286 104.918863,68.1277408 L101.74593,84.6328837 L117.03643,84.6328837 C117.599997,84.6328837 118.089363,85.0590061 118.168863,85.6200673 C118.638797,88.9811082 121.511397,91.5733531 124.984663,91.5733531 C128.45793,91.5733531 131.328763,88.9775571 131.800463,85.6165163 C131.878197,85.0554551 132.367563,84.6328837 132.932897,84.6328837 L148.223397,84.6328837 L145.048697,68.1277408 Z" id="Fill-1" fill="#FFFFFF"></path>
                        <path d="M135.185573,88.8568224 C133.524907,93.0807612 129.514573,95.7742102 124.98484,95.7742102 C120.45334,95.7742102 116.443007,93.0807612 114.78234,88.8568224 L99.6914733,88.8568224 C99.20034,88.8568224 98.8629067,89.3397612 99.0554733,89.7942918 C103.09584,99.3181286 114.298273,109.078108 124.113873,113.094312 C124.67214,113.321578 125.295773,113.316251 125.85404,113.08721 C135.66964,109.072782 146.87384,99.3199041 150.914207,89.7960673 C151.106773,89.3415367 150.76934,88.8568224 150.27644,88.8568224 L135.185573,88.8568224 Z" id="Fill-3" fill="#FFFFFF"></path>
                        <path d="M114.872793,40.150849 L119.319493,44.5470122 C111.516127,46.3722367 105.56246,51.8976245 104.334627,58.5859714 L120.14806,58.5859714 C120.14806,61.4019306 122.232727,63.2626653 124.803227,63.2626653 C127.373727,63.2626653 129.458393,61.4019306 129.458393,58.5859714 L145.633993,58.5859714 C144.40616,51.8976245 138.452493,46.3722367 130.649127,44.5470122 L135.095827,40.1135633 L133.558827,38.5546653 L127.921393,44.1546245 C127.476193,44.1013592 127.205893,44.062298 126.504527,44.0321143 L126.504527,36.1772571 C127.905493,35.4972367 128.947827,33.970298 128.764093,32.2391755 C128.57506,30.4494612 127.172327,28.9988694 125.393293,28.8000122 C123.05776,28.5390122 121.109127,30.3713388 121.109127,32.665298 C121.109127,34.2170939 121.951827,35.5522776 123.352793,36.1772571 L123.352793,44.0321143 C122.651427,44.062298 122.435893,44.1013592 121.99246,44.1546245 L116.415093,38.5564408 L114.872793,40.150849 Z" id="Fill-6" fill="#FFFFFF"></path>
                        <path d="M117.281643,37.6415204 C117.281643,39.390398 115.870077,40.8090306 114.12991,40.8090306 C112.387977,40.8090306 110.978177,39.390398 110.978177,37.6415204 C110.978177,35.8926429 112.387977,34.4740102 114.12991,34.4740102 C115.870077,34.4740102 117.281643,35.8926429 117.281643,37.6415204 Z M132.32481,37.6415204 C132.32481,39.390398 133.736377,40.8090306 135.476543,40.8090306 C137.218477,40.8090306 138.628277,39.390398 138.628277,37.6415204 C138.628277,35.8926429 137.218477,34.4740102 135.476543,34.4740102 C133.736377,34.4740102 132.32481,35.8926429 132.32481,37.6415204 Z" id="Combined-Shape" fill="#FFFFFF"></path>
                    </g>
                </g>
            </g>
        </g>
    </g>
</svg>