<?xml version="1.0" encoding="UTF-8"?>
<svg width="25px" height="25px" viewBox="0 0 25 25" version="1.1" xmlns="http://www.w3.org/2000/svg" xmlns:xlink="http://www.w3.org/1999/xlink">
    <!-- Generator: Sketch 41.2 (35397) - http://www.bohemiancoding.com/sketch -->
    <title>设置</title>
    <desc>Created with Sketch.</desc>
    <defs></defs>
    <g id="Page-1" stroke="none" stroke-width="1" fill="none" fill-rule="evenodd">
        <g id="13首页" transform="translate(-446.000000, -381.000000)">
            <g id="我的班级" transform="translate(223.000000, 335.000000)">
                <g id="小学" transform="translate(5.000000, 39.000000)">
                    <g id="修改图标">
                        <g id="设置" transform="translate(218.000000, 7.000000)">
                            <rect id="Rectangle-3" fill="#000000" opacity="0.217504529" x="0" y="0" width="25" height="25" rx="3"></rect>
                            <path d="M12.5274194,15.8177419 C10.7040323,15.8177419 9.23709677,14.3508065 9.23709677,12.5274194 C9.23709677,10.7040323 10.7177419,9.23709677 12.5274194,9.23709677 C14.3508065,9.23709677 15.8177419,10.7040323 15.8177419,12.5274194 C15.8177419,14.3508065 14.3508065,15.8177419 12.5274194,15.8177419 M20.1774194,10.4572581 L19.725,10.4572581 C18.9846774,10.4572581 18.5185484,9.34677419 19.0395161,8.82580645 L19.3685484,8.51048387 C19.683871,8.19516129 19.683871,7.67419355 19.3685484,7.35887097 L17.641129,5.63145161 C17.3120968,5.30241935 16.791129,5.31612903 16.4758065,5.63145161 L16.1467742,5.91935484 C15.6258065,6.45403226 14.5564516,6.01532258 14.5564516,5.26129032 L14.5564516,4.85 C14.5564516,4.39758065 14.1862903,4 13.733871,4 L11.266129,4 C10.8137097,4 10.4435484,4.39758065 10.4435484,4.85 L10.4435484,5.26129032 C10.4435484,6.01532258 9.37419355,6.45403226 8.85322581,5.91935484 L8.53790323,5.60403226 C8.22258065,5.275 7.68790323,5.275 7.37258065,5.60403226 L5.63145161,7.34516129 C5.31612903,7.66048387 5.31612903,8.18145161 5.63145161,8.51048387 L5.96048387,8.81209677 C6.48145161,9.33306452 6.01532258,10.4435484 5.275,10.4435484 L4.82258065,10.4435484 C4.37016129,10.4435484 4,10.841129 4,11.2935484 L4,13.7612903 C4,14.2274194 4.37016129,14.5564516 4.82258065,14.5564516 L5.28870968,14.5564516 C6.02903226,14.5564516 6.48145161,15.6395161 5.94677419,16.1741935 L5.64516129,16.4758065 C5.31612903,16.791129 5.31612903,17.3258065 5.64516129,17.641129 L7.37258065,19.3822581 C7.68790323,19.6975806 8.20887097,19.6975806 8.53790323,19.3822581 L9.04516129,18.875 C9.56612903,18.3540323 10.4435484,18.7241935 10.4435484,19.4645161 L10.4435484,20.2048387 C10.4435484,20.6572581 10.8137097,21 11.266129,21 L13.733871,21 C14.1862903,21 14.5564516,20.6709677 14.5564516,20.2048387 L14.5564516,19.4645161 C14.5564516,18.7379032 15.4475806,18.3677419 15.9548387,18.8887097 L16.4620968,19.3959677 C16.7774194,19.7112903 17.2983871,19.7112903 17.6274194,19.3959677 L19.3548387,17.6685484 C19.683871,17.3395161 19.6701613,16.8185484 19.3548387,16.5032258 L19.0532258,16.1879032 C18.5185484,15.6669355 18.9709677,14.5701613 19.7112903,14.5701613 L20.1774194,14.5701613 C20.6298387,14.5701613 21,14.241129 21,13.775 L21,11.3072581 C21,10.8548387 20.6298387,10.4572581 20.1774194,10.4572581" id="Page-1" fill="#FFFFFF" opacity="0.8"></path>
                        </g>
                    </g>
                </g>
            </g>
        </g>
    </g>
</svg>