<?xml version="1.0" encoding="UTF-8"?>
<svg width="30px" height="25px" viewBox="0 0 30 25" version="1.1" xmlns="http://www.w3.org/2000/svg" xmlns:xlink="http://www.w3.org/1999/xlink">
    <!-- Generator: Sketch 41.2 (35397) - http://www.bohemiancoding.com/sketch -->
    <title>新浪</title>
    <desc>Created with Sketch.</desc>
    <defs></defs>
    <g id="Symbols" stroke="none" stroke-width="1" fill="none" fill-rule="evenodd">
        <g id="footer" transform="translate(-958.000000, -182.000000)" fill="#FFFFFF">
            <g id="新浪">
                <g transform="translate(958.000000, 182.000000)">
                    <g id="Layer_4">
                        <g id="Group">
                            <path d="M22.4366327,11.7997959 C22.02,11.6752041 21.7337755,11.5897959 21.9523469,11.042449 C22.4246939,9.85255102 22.4733673,8.82673469 21.9609184,8.09479592 C21,6.72214286 18.3704082,6.79591837 15.3566327,8.0577551 C15.3566327,8.05622449 14.410102,8.4722449 14.6522449,7.72102041 C15.1160204,6.23081633 15.0459184,4.9827551 14.3246939,4.26183673 C12.6896939,2.62530612 8.34153061,4.32367347 4.61173469,8.05132653 C1.81959184,10.8440816 0.198061224,13.8039796 0.198061224,16.3631633 C0.198061224,21.2589796 6.47632653,24.235102 12.6180612,24.235102 C20.6690816,24.235102 26.0243878,19.5572449 26.0243878,15.8436735 C26.0246939,13.5997959 24.135,12.3263265 22.4366327,11.7997959 Z M12.6342857,22.4807143 C7.73387755,22.9640816 3.50326531,20.7495918 3.18489796,17.5316327 C2.86683673,14.3145918 6.58285714,11.3139796 11.4823469,10.8296939 C16.3836735,10.3444898 20.6142857,12.559898 20.9320408,15.7763265 C21.2497959,18.994898 17.5353061,21.9961224 12.6342857,22.4807143 Z" id="Shape"></path>
                            <path d="M27.7827551,2.84081633 L27.7827551,2.84081633 C25.8385714,0.685408163 22.9708163,-0.135918367 20.3237755,0.426734694 L20.3228571,0.426734694 C19.7109184,0.55744898 19.32,1.16020408 19.4513265,1.77183673 C19.5817347,2.38346939 20.1841837,2.77469388 20.7967347,2.64397959 C22.6793878,2.24387755 24.717551,2.82918367 26.1,4.36010204 C27.4809184,5.89102041 27.8559184,7.97938776 27.2644898,9.81 L27.2647959,9.81091837 C27.0719388,10.407551 27.3979592,11.0455102 27.9952041,11.2380612 C28.5903061,11.4306122 29.2291837,11.1045918 29.4220408,10.510102 C29.4220408,10.5091837 29.4220408,10.5070408 29.4223469,10.5058163 C30.2522449,7.9294898 29.7278571,4.99408163 27.7827551,2.84081633 Z" id="Shape"></path>
                            <path d="M21.1637755,4.36132653 C20.6363265,4.47336735 20.3002041,4.99255102 20.4140816,5.52 C20.5264286,6.04530612 21.0453061,6.38295918 21.5706122,6.26846939 L21.5706122,6.26938776 C22.2012245,6.13561224 22.8847959,6.33030612 23.3476531,6.84244898 C23.8105102,7.35612245 23.9354082,8.05561224 23.7364286,8.66908163 L23.7373469,8.66908163 C23.5720408,9.18122449 23.8521429,9.73163265 24.3652041,9.89816327 C24.8782653,10.0622449 25.4283673,9.78244898 25.5936735,9.26908163 C25.9986735,8.01397959 25.7458163,6.58469388 24.7971429,5.53530612 C23.8503061,4.48591837 22.4534694,4.08734694 21.1637755,4.36132653 Z" id="Shape"></path>
                            <polygon id="Shape" points="24.7968367 5.53530612 24.7968367 5.53530612 24.7968367 5.53580612"></polygon>
                            <path d="M13.1240816,13.3056122 C10.7923469,12.6985714 8.15602041,13.8609184 7.14336735,15.9159184 C6.11204082,18.0116327 7.10908163,20.3378571 9.465,21.0988776 C11.9060204,21.8856122 14.7823469,20.6794898 15.7827551,18.417551 C16.7693878,16.2061224 15.537551,13.9291837 13.1240816,13.3056122 Z M11.3433673,18.6578571 C10.8691837,19.4139796 9.85469388,19.7452041 9.08969388,19.3962245 C8.33632653,19.0533673 8.11377551,18.1744898 8.58826531,17.4373469 C9.05632653,16.7032653 10.0368367,16.3757143 10.7963265,16.6937755 C11.5631633,17.0213265 11.8089796,17.8934694 11.3433673,18.6578571 Z M12.904898,16.6530612 C12.7334694,16.9466327 12.3544898,17.087449 12.057551,16.9653061 C11.7655102,16.8453061 11.6739796,16.517449 11.839898,16.2293878 C12.0107143,15.9428571 12.375,15.8029592 12.6661224,15.9183673 C12.962449,16.0267347 13.0683673,16.3585714 12.904898,16.6530612 Z" id="Shape"></path>
                        </g>
                    </g>
                </g>
            </g>
        </g>
    </g>
</svg>