<?xml version="1.0" encoding="UTF-8"?>
<svg width="24px" height="24px" viewBox="0 0 24 24" version="1.1" xmlns="http://www.w3.org/2000/svg" xmlns:xlink="http://www.w3.org/1999/xlink">
    <!-- Generator: Sketch 41.2 (35397) - http://www.bohemiancoding.com/sketch -->
    <title>Shape</title>
    <desc>Created with Sketch.</desc>
    <defs></defs>
    <g id="Symbols" stroke="none" stroke-width="1" fill="none" fill-rule="evenodd">
        <g id="footer" transform="translate(-1118.000000, -182.000000)" fill="#FFFFFF">
            <g id="Page-1">
                <g transform="translate(1013.000000, 182.000000)">
                    <path d="M114.204588,14.8078374 C116.357192,16.9447084 118.848831,18.9860044 119.827001,18.0003613 C121.22759,16.5895465 122.089733,15.3620158 125.197694,17.8406761 C128.305656,20.3205163 125.93201,21.9893446 124.575473,23.3565015 C123.010086,24.9336878 117.146965,23.4670226 111.335368,17.6994766 C105.524164,11.9307507 104.012661,6.07903575 105.579228,4.50106287 C106.936159,3.1339059 108.587288,0.748460856 111.08876,3.83832999 C113.591413,6.92662587 112.370568,7.7982081 110.96998,9.20941615 C109.992203,10.1946659 112.051591,12.670573 114.204588,14.8078374 Z M117.325922,4.61355047 C117.325922,4.61355047 116.676562,4.51207564 116.221892,4.9671391 C115.753849,5.43518191 115.733397,6.24147413 116.226612,6.73429567 C116.518057,7.02574082 116.929069,7.08788431 116.929069,7.08788431 C117.730248,7.23812999 118.93772,7.49260368 120.222675,8.77716485 C121.507236,10.061726 121.761709,11.2691978 121.911955,12.0707703 C121.911955,12.0707703 121.974099,12.4817826 122.265544,12.7732278 C122.758365,13.2660493 123.564658,13.2459903 124.0327,12.7779475 C124.48737,12.3232774 124.386289,11.6739172 124.386289,11.6739172 C124.131815,10.0511066 123.345189,8.35592633 121.994551,7.00528852 C120.64352,5.65465072 118.94834,4.86841747 117.325922,4.61355047 Z M123.417165,5.58267439 C125.772325,7.93783431 126.776454,10.6107914 126.44961,12.7767676 C126.44961,12.7767676 126.33555,13.462706 126.783533,13.9106898 C127.287761,14.4149174 128.086974,14.3858122 128.55895,13.9142296 C128.862194,13.6109851 128.928271,13.1173769 128.928271,13.1173769 C129.198477,11.245599 128.858654,7.48001765 125.189041,3.81079806 C121.519428,0.141578464 117.75424,-0.198244211 115.882463,0.0715687 C115.882463,0.0715687 115.389248,0.137252018 115.08561,0.44088987 C114.613634,0.912865807 114.584922,1.71207839 115.08915,2.21630602 C115.537133,2.66428985 116.223072,2.55022899 116.223072,2.55022899 C118.389048,2.22338566 121.062005,3.22751446 123.417165,5.58267439 Z" id="Shape"></path>
                </g>
            </g>
        </g>
    </g>
</svg>