<?xml version="1.0" encoding="UTF-8"?>
<svg width="30px" height="25px" viewBox="0 0 30 25" version="1.1" xmlns="http://www.w3.org/2000/svg" xmlns:xlink="http://www.w3.org/1999/xlink">
    <!-- Generator: Sketch 41.2 (35397) - http://www.bohemiancoding.com/sketch -->
    <title>微信</title>
    <desc>Created with Sketch.</desc>
    <defs></defs>
    <g id="Symbols" stroke="none" stroke-width="1" fill="none" fill-rule="evenodd">
        <g id="footer" transform="translate(-1013.000000, -182.000000)" fill="#FFFFFF">
            <g id="Page-1">
                <g transform="translate(1013.000000, 182.000000)">
                    <g id="微信">
                        <path d="M7.15021875,7.15078125 C6.35615625,7.15078125 5.55553125,6.61921875 5.55553125,5.82515625 C5.55553125,5.02828125 6.35615625,4.50328125 7.15021875,4.50328125 C7.94428125,4.50328125 8.47209375,5.02828125 8.47209375,5.82515625 C8.47209375,6.61921875 7.94428125,7.15078125 7.15021875,7.15078125 M14.5620937,4.50328125 C15.3599062,4.50328125 15.8877187,5.02828125 15.8877187,5.82515625 C15.8877187,6.61921875 15.3599062,7.15078125 14.5620937,7.15078125 C13.7689687,7.15078125 12.9720937,6.61921875 12.9720937,5.82515625 C12.9720937,5.02828125 13.7689687,4.50328125 14.5620937,4.50328125 M20.2564687,7.37484375 C20.6005312,7.37484375 20.9399062,7.40015625 21.2764687,7.43765625 C20.3605312,3.17015625 15.7986562,0.00046875 10.5908437,0.00046875 C4.76896875,0.00046875 -9.37500004e-05,3.96796875 -9.37500004e-05,9.00703125 C-9.37500004e-05,11.9160937 1.58615625,14.3048437 4.23834375,16.1573437 L3.17896875,19.3429687 L6.88115625,17.4867187 C8.20584375,17.7492187 9.26896875,18.0182812 10.5908437,18.0182812 C10.9227187,18.0182812 11.2527187,18.0023437 11.5799062,17.9760937 C11.3727187,17.2682812 11.2527187,16.5267187 11.2527187,15.7570312 C11.2527187,11.1304687 15.2258437,7.37484375 20.2564687,7.37484375" id="Fill-1"></path>
                        <path d="M23.8320937,14.3046562 C23.3080312,14.3046562 22.7802187,13.7796562 22.7802187,13.2452812 C22.7802187,12.7174687 23.3080312,12.1859062 23.8320937,12.1859062 C24.6261562,12.1859062 25.1577187,12.7174687 25.1577187,13.2452812 C25.1577187,13.7796562 24.6261562,14.3046562 23.8320937,14.3046562 M18.0064687,14.3046562 C17.4795937,14.3046562 16.9470937,13.7796562 16.9470937,13.2452812 C16.9470937,12.7174687 17.4795937,12.1859062 18.0064687,12.1859062 C18.8080312,12.1859062 19.3320937,12.7174687 19.3320937,13.2452812 C19.3320937,13.7796562 18.8080312,14.3046562 18.0064687,14.3046562 M29.9230312,15.6302812 C29.9230312,11.3955937 25.6855312,7.94371875 20.9267812,7.94371875 C15.8877187,7.94371875 11.9192812,11.3955937 11.9192812,15.6302812 C11.9192812,19.8715312 15.8877187,23.3159062 20.9267812,23.3159062 C21.9814687,23.3159062 23.0455312,23.0496562 24.1049062,22.7843437 L27.0102187,24.3752812 L26.2133437,21.7287187 C28.3395937,20.1330937 29.9230312,18.0180937 29.9230312,15.6302812" id="Fill-4"></path>
                    </g>
                </g>
            </g>
        </g>
    </g>
</svg>